#!OML:ASF X:\für Bonn\!DataBase\2005_08_12_Daniel\c3d\Daniel.ASF
:FULLY-SPECIFIED
:DEGREES
141
root -3.37574 14.6957 -3.04688 319.586 -79.9029 -331.204
lowerback 41.023 -3.50349 -0.815479
upperback 4.21284 -6.00129 -3.09908
thorax -15.4277 -2.86515 -0.0751394
lowerneck 8.47562 2.53389 -4.35008
upperneck -1.72952 2.85283 -0.675459
head -2.05591 1.46094 0.4075
rclavicle -8.99501e-014 1.27222e-014
rhumerus 64.5766 3.49069 -84.9367
rradius 12.5957
rwrist 51.2059
rhand -27.2255 12.1542
rfingers 7.12502
rthumb -0.63789 -17.8246
lclavicle -8.99501e-014 1.27222e-014
lhumerus 68.8697 -1.31875 87.1576
lradius 9.10225
lwrist -63.2991
lhand -19.7324 1.81117
lfingers 7.12502
lthumb 6.59818 31.6884
rfemur -36.8869 -16.6514 4.49103
rtibia 92.2687
rfoot -4.42588 -0.479411
rtoes -5.26277
lfemur -40.5626 5.01058 -19.027
ltibia 85.6452
lfoot -11.3103 -7.2472
ltoes -6.33319
142
root -3.41344 14.8756 -3.04817 320.189 -79.9249 -331.598
lowerback 40.3979 -3.48809 -0.859567
upperback 4.17673 -5.96362 -3.0366
thorax -15.2424 -2.84776 -0.0281344
lowerneck 8.17441 2.56594 -4.44861
upperneck -1.36402 2.91042 -0.567863
head -1.88567 1.47971 0.460905
rclavicle 4.4329e-014 3.18055e-015
rhumerus 64.2899 3.29178 -85.422
rradius 12.5321
rwrist 51.9905
rhand -27.1093 12.2836
rfingers 7.12502
rthumb -0.52565 -17.6955
lclavicle 4.4329e-014 3.18055e-015
lhumerus 68.5119 -1.29507 87.2257
lradius 9.19183
lwrist -63.3025
lhand -19.6895 1.95701
lfingers 7.12502
lthumb 6.63961 31.8329
rfemur -35.8923 -16.089 4.85289
rtibia 90.4015
rfoot -3.88932 -1.14828
rtoes -5.57495
lfemur -39.2964 4.4713 -19.0433
ltibia 83.639
lfoot -11.0836 -6.79184
ltoes -6.32928
143
root -3.45311 15.053 -3.0503 320.769 -79.9583 -331.958
lowerback 39.7627 -3.46696 -0.906955
upperback 4.11166 -5.91939 -2.97763
thorax -15.0846 -2.82573 0.013972
lowerneck 7.95734 2.58768 -4.53843
upperneck -1.03556 2.94975 -0.458462
head -1.74358 1.4901 0.512957
rclavicle -8.44835e-015 5.56597e-015
rhumerus 63.9831 3.10712 -85.8243
rradius 12.3981
rwrist 52.7519
rhand -27.0283 12.4782
rfingers 7.12502
rthumb -0.447465 -17.501
lclavicle -8.44835e-015 5.56597e-015
lhumerus 68.1117 -1.30547 87.3007
lradius 9.22256
lwrist -63.3063
lhand -19.7696 2.1978
lfingers 7.12502
lthumb 6.56224 32.0761
rfemur -34.9193 -15.5607 5.19299
rtibia 88.5521
rfoot -3.32671 -1.76838
rtoes -5.80766
lfemur -38.0455 3.94596 -19.0509
ltibia 81.6339
lfoot -10.8592 -6.34203
ltoes -6.3861
144
root -3.49334 15.2281 -3.052 321.425 -79.9828 -332.411
lowerback 39.1591 -3.46526 -0.906864
upperback 4.01163 -5.88446 -2.94803
thorax -14.984 -2.80822 0.00622397
lowerneck 7.80768 2.60223 -4.54701
upperneck -0.673131 2.98234 -0.366861
head -1.60124 1.49647 0.545123
rclavicle 1.39149e-015 -6.75868e-015
rhumerus 63.6111 2.86611 -86.3283
rradius 12.2152
rwrist 53.5633
rhand -26.9647 12.8002
rfingers 7.12502
rthumb -0.385972 -17.1792
lclavicle 1.39149e-015 -6.75868e-015
lhumerus 67.6716 -1.36768 87.3553
lradius 9.18341
lwrist -63.3429
lhand -19.9764 2.3986
lfingers 7.12502
lthumb 6.36263 32.283
rfemur -33.9178 -15.0919 5.5129
rtibia 86.7108
rfoot -2.73178 -2.36195
rtoes -5.98951
lfemur -36.7872 3.39362 -19.0607
ltibia 79.6192
lfoot -10.6432 -5.82881
ltoes -6.44056
145
root -3.5347 15.3982 -3.05487 322.038 -80.0093 -332.82
lowerback 38.5585 -3.45218 -0.968499
upperback 3.9001 -5.85554 -2.88506
thorax -14.8846 -2.78889 0.0698607
lowerneck 7.67459 2.62829 -4.57694
upperneck -0.327676 3.02573 -0.291364
head -1.46854 1.50903 0.575103
rclavicle -5.69518e-014 0
rhumerus 63.2599 2.725 -86.6812
rradius 12.0166
rwrist 54.2403
rhand -26.899 13.0914
rfingers 7.12502
rthumb -0.322518 -16.8881
lclavicle -5.69518e-014 0
lhumerus 67.2004 -1.39366 87.4397
lradius 9.12499
lwrist -63.3545
lhand -20.3441 2.66131
lfingers 7.12502
lthumb 6.00761 32.5561
rfemur -32.9532 -14.6658 5.81587
rtibia 84.901
rfoot -2.11141 -2.93984
rtoes -6.20315
lfemur -35.5432 2.83451 -19.0638
ltibia 77.6081
lfoot -10.4289 -5.34436
ltoes -6.54942
146
root -3.57708 15.565 -3.05839 322.66 -80.0333 -333.236
lowerback 37.9735 -3.43907 -1.01882
upperback 3.74841 -5.82179 -2.82644
thorax -14.8362 -2.76555 0.122624
lowerneck 7.599 2.64902 -4.61422
upperneck 0.0337767 3.05739 -0.205537
head -1.34166 1.51508 0.609463
rclavicle 3.39922e-014 9.54166e-015
rhumerus 62.856 2.58709 -86.9751
rradius 11.7668
rwrist 54.8359
rhand -26.9204 13.3215
rfingers 7.12502
rthumb -0.343186 -16.658
lclavicle 3.39922e-014 9.54166e-015
lhumerus 66.6065 -1.41827 87.5241
lradius 9.12288
lwrist -63.2672
lhand -20.8114 2.842
lfingers 7.12502
lthumb 5.55643 32.7492
rfemur -31.9877 -14.2677 6.10269
rtibia 83.1031
rfoot -1.5202 -3.47872
rtoes -6.36875
lfemur -34.3153 2.26061 -19.0704
ltibia 75.606
lfoot -10.1971 -4.79755
ltoes -6.66422
147
root -3.62067 15.7297 -3.06163 323.177 -80.0543 -333.549
lowerback 37.3709 -3.4073 -1.1224
upperback 3.60008 -5.78394 -2.757
thorax -14.7673 -2.73802 0.21191
lowerneck 7.55471 2.6597 -4.50898
upperneck 0.382768 3.08277 -0.237493
head -1.21927 1.52028 0.582526
rclavicle 1.56046e-014 2.82274e-014
rhumerus 62.4387 2.4263 -87.3568
rradius 11.4988
rwrist 55.477
rhand -27.0095 13.489
rfingers 7.12502
rthumb -0.429271 -16.4904
lclavicle 1.56046e-014 2.82274e-014
lhumerus 65.9825 -1.39095 87.6008
lradius 9.1343
lwrist -63.1157
lhand -21.3279 2.9931
lfingers 7.12502
lthumb 5.05777 32.9127
rfemur -31.0231 -13.9127 6.35142
rtibia 81.3148
rfoot -0.93609 -3.99935
rtoes -6.48884
lfemur -33.0811 1.63768 -19.0979
ltibia 73.5986
lfoot -9.96634 -4.22794
ltoes -6.75039
